<svg id="Layer_1" data-name="Layer 1" xmlns="http://www.w3.org/2000/svg" viewBox="0 0 659.8 376.67"><defs><style>.cls-1{fill:#2a322a;}</style></defs><title>mf_logo</title><path class="cls-1" d="M56.14,229.69V41.09h.25l95.82,136-10.37-2,95.57-134h.5V222.75l-24.27,6.94v-133l1.52,12.39-69,97.59h-.51l-70-97.59,4.3-11.38v132Z" transform="translate(-56.14 -38.24)"/><path class="cls-1" d="M248.1,156.08A113.21,113.21,0,0,1,257.17,111a121.9,121.9,0,0,1,62.74-63.37,115,115,0,0,1,91.08,0,123.62,123.62,0,0,1,37.58,25.79A121.54,121.54,0,0,1,474.21,111a111.63,111.63,0,0,1,9.23,45.07,114.24,114.24,0,0,1-9.23,45.85,116.88,116.88,0,0,1-25.64,37.42A121.56,121.56,0,0,1,411,264.51a114,114,0,0,1-45.38,9.08,116.46,116.46,0,0,1-45.7-8.92,118.66,118.66,0,0,1-37.42-24.84,114.09,114.09,0,0,1-25.32-37.26A117.53,117.53,0,0,1,248.1,156.08Zm31.84.31a85.9,85.9,0,0,0,6.69,33.92,90.06,90.06,0,0,0,18.47,27.87,86,86,0,0,0,27.39,18.94,83.86,83.86,0,0,0,94.27-18.94,93,93,0,0,0,18.15-27.87,86.72,86.72,0,0,0,6.69-34.23,89.11,89.11,0,0,0-25.16-62.42,86.34,86.34,0,0,0-27.39-19,82.4,82.4,0,0,0-33.44-6.85,81.48,81.48,0,0,0-33.76,7A88.42,88.42,0,0,0,304.47,94a84.79,84.79,0,0,0-18.16,28.19A92,92,0,0,0,279.94,156.39Z" transform="translate(-56.14 -38.24)"/><path class="cls-1" d="M657.36,239.55,516,90.93l7.08,1.83.61,180.83-24.63-30.22V38.24h1.27l139.8,149.15-5.81-1.31L633.84,44h24.27V239.55Z" transform="translate(-56.14 -38.24)"/><path class="cls-1" d="M56.14,227.72H164.6v23.51H80.66v58.4h73.57v23.26H80.66v77.62H56.14Z" transform="translate(-56.14 -38.24)"/><path class="cls-1" d="M172,297.4a113.2,113.2,0,0,1,9.07-45.06A121.9,121.9,0,0,1,243.81,189a115,115,0,0,1,91.08,0,123.62,123.62,0,0,1,37.58,25.79,121.42,121.42,0,0,1,25.64,37.58,111.62,111.62,0,0,1,9.23,45.06,114.29,114.29,0,0,1-9.23,45.86,117,117,0,0,1-25.64,37.42,121.73,121.73,0,0,1-37.58,25.16,114,114,0,0,1-45.38,9.07,116.63,116.63,0,0,1-45.7-8.91,118.66,118.66,0,0,1-37.42-24.84,114.45,114.45,0,0,1-25.32-37.26A117.54,117.54,0,0,1,172,297.4Zm31.84.32a85.93,85.93,0,0,0,6.69,33.92A89.72,89.72,0,0,0,229,359.5a86.07,86.07,0,0,0,27.39,18.95,83.83,83.83,0,0,0,94.27-18.95,92.84,92.84,0,0,0,18.15-27.86,86.73,86.73,0,0,0,6.69-34.24A89.16,89.16,0,0,0,350.34,235,86.5,86.5,0,0,0,323,216a85,85,0,0,0-67.2.16,88.45,88.45,0,0,0-27.38,19.11,84.75,84.75,0,0,0-18.16,28.18A92.11,92.11,0,0,0,203.84,297.72Z" transform="translate(-56.14 -38.24)"/><path class="cls-1" d="M474.34,227.72A86,86,0,0,1,500,231.39a59.48,59.48,0,0,1,20.48,10.87A50.5,50.5,0,0,1,534.13,260q4.93,10.49,4.93,24.39a72.66,72.66,0,0,1-3.16,21.24,51.55,51.55,0,0,1-10.49,18.83,53,53,0,0,1-19.09,13.65q-11.76,5.19-28.95,5.19H450.32v67.25H425.8V227.72Zm2.53,92q10.86,0,18.07-3.29A29.23,29.23,0,0,0,506.19,308,33.29,33.29,0,0,0,512,296.74a40.78,40.78,0,0,0,1.77-11.38,37.91,37.91,0,0,0-1.9-11.5,33,33,0,0,0-6.07-11,32.18,32.18,0,0,0-10.87-8.34q-6.69-3.28-16.3-3.29H450.32v68.52ZM507,333.65l47.78,76.86H526.42l-48.54-76.1Z" transform="translate(-56.14 -38.24)"/><path class="cls-1" d="M566.78,410.51V227.72h49.8q27,0,46.14,8.34t30.72,22a89,89,0,0,1,17.06,30.21,105.12,105.12,0,0,1,5.44,33q0,20.73-7.21,37.17a82.85,82.85,0,0,1-19.84,28.06,89.13,89.13,0,0,1-28.95,17.82,96.15,96.15,0,0,1-34.51,6.2ZM591.3,387h29.33a82.48,82.48,0,0,0,27.93-4.55,65.36,65.36,0,0,0,22.25-13.14,59.37,59.37,0,0,0,14.79-21.11,72.25,72.25,0,0,0,5.31-28.44q0-16.94-5.56-29.71a60.85,60.85,0,0,0-15.17-21.36,66.51,66.51,0,0,0-21.74-13,74,74,0,0,0-25.54-4.43H591.3Z" transform="translate(-56.14 -38.24)"/></svg>